<svg xmlns="http://www.w3.org/2000/svg" viewBox="0 0 522 250"><defs><style>.cls-1,.cls-2,.cls-3{fill:none;}.cls-1,.cls-2,.cls-3,.cls-4{stroke:#000;stroke-miterlimit:10;}.cls-2{stroke-width:0.25px;}.cls-3{stroke-width:0.75px;}.cls-4{fill:#fff;}</style></defs><g id="Layer_2" data-name="Layer 2"><g id="Layer_2_copy" data-name="Layer 2 copy"><rect class="cls-1" x="0.5" y="0.5" width="43" height="249" rx="9.54"/><circle class="cls-1" cx="14.5" cy="21.5" r="6"/><circle class="cls-1" cx="14.5" cy="21.5" r="6"/><circle class="cls-2" cx="14.5" cy="21.5" r="1.74"/><circle class="cls-1" cx="31.5" cy="40.5" r="6"/><circle class="cls-1" cx="31.5" cy="40.5" r="6"/><circle class="cls-2" cx="31.5" cy="40.5" r="1.74"/><line class="cls-2" x1="33" y1="39" x2="34" y2="38"/><circle class="cls-1" cx="14.5" cy="61.5" r="6"/><circle class="cls-1" cx="14.5" cy="61.5" r="6"/><circle class="cls-2" cx="14.5" cy="61.5" r="1.74"/><line class="cls-2" x1="16" y1="60" x2="17" y2="59"/><rect class="cls-1" x="21.07" y="122.5" width="2.86" height="83"/><rect class="cls-3" x="3.5" y="78.5" width="5" height="17"/><rect class="cls-3" x="11.5" y="78.5" width="5" height="17"/><rect class="cls-3" x="19.5" y="78.5" width="5" height="17"/><rect class="cls-3" x="27.5" y="78.5" width="5" height="17"/><rect class="cls-3" x="35.5" y="78.5" width="5" height="17"/><rect class="cls-1" x="43.5" y="0.5" width="43" height="249" rx="9.54"/><circle class="cls-1" cx="57.5" cy="21.5" r="6"/><circle class="cls-1" cx="57.5" cy="21.5" r="6"/><circle class="cls-2" cx="57.5" cy="21.5" r="1.74"/><circle class="cls-1" cx="74.5" cy="40.5" r="6"/><circle class="cls-1" cx="74.5" cy="40.5" r="6"/><circle class="cls-2" cx="74.5" cy="40.5" r="1.74"/><line class="cls-2" x1="76" y1="39" x2="77" y2="38"/><circle class="cls-1" cx="57.5" cy="61.5" r="6"/><circle class="cls-1" cx="57.5" cy="61.5" r="6"/><circle class="cls-2" cx="57.5" cy="61.5" r="1.74"/><line class="cls-2" x1="59" y1="60" x2="60" y2="59"/><rect class="cls-1" x="64.07" y="122.5" width="2.86" height="123"/><rect class="cls-3" x="46.5" y="78.5" width="5" height="17"/><rect class="cls-3" x="54.5" y="78.5" width="5" height="17"/><rect class="cls-3" x="62.5" y="78.5" width="5" height="17"/><rect class="cls-3" x="70.5" y="78.5" width="5" height="17"/><rect class="cls-3" x="78.5" y="78.5" width="5" height="17"/><rect class="cls-4" x="58.5" y="193.5" width="14" height="42" rx="7"/><line class="cls-1" x1="60.5" y1="202.5" x2="70.5" y2="202.5"/><line class="cls-1" x1="60.5" y1="208.5" x2="70.5" y2="208.5"/><line class="cls-1" x1="60.5" y1="214.5" x2="70.5" y2="214.5"/><line class="cls-1" x1="60.5" y1="220.5" x2="70.5" y2="220.5"/><line class="cls-1" x1="60.5" y1="226.5" x2="70.5" y2="226.5"/><rect class="cls-1" x="15.5" y="205.5" width="14" height="42" rx="7"/><line class="cls-1" x1="17.5" y1="214.5" x2="27.5" y2="214.5"/><line class="cls-1" x1="17.5" y1="220.5" x2="27.5" y2="220.5"/><line class="cls-1" x1="17.5" y1="226.5" x2="27.5" y2="226.5"/><rect class="cls-1" x="87.5" y="0.5" width="43" height="249" rx="9.54"/><circle class="cls-1" cx="101.5" cy="21.5" r="6"/><circle class="cls-1" cx="101.5" cy="21.5" r="6"/><circle class="cls-2" cx="101.5" cy="21.5" r="1.74"/><circle class="cls-1" cx="118.5" cy="40.5" r="6"/><circle class="cls-1" cx="118.5" cy="40.5" r="6"/><circle class="cls-2" cx="118.5" cy="40.5" r="1.74"/><line class="cls-2" x1="120" y1="39" x2="121" y2="38"/><circle class="cls-1" cx="101.5" cy="61.5" r="6"/><circle class="cls-1" cx="101.5" cy="61.5" r="6"/><circle class="cls-2" cx="101.5" cy="61.5" r="1.74"/><line class="cls-2" x1="103" y1="60" x2="104" y2="59"/><rect class="cls-1" x="108.07" y="122.5" width="2.86" height="83"/><rect class="cls-3" x="90.5" y="78.5" width="5" height="17"/><rect class="cls-3" x="98.5" y="78.5" width="5" height="17"/><rect class="cls-3" x="106.5" y="78.5" width="5" height="17"/><rect class="cls-3" x="114.5" y="78.5" width="5" height="17"/><rect class="cls-3" x="122.5" y="78.5" width="5" height="17"/><rect class="cls-1" x="130.5" y="0.5" width="43" height="249" rx="9.54"/><circle class="cls-1" cx="144.5" cy="21.5" r="6"/><circle class="cls-1" cx="144.5" cy="21.5" r="6"/><circle class="cls-2" cx="144.5" cy="21.5" r="1.74"/><circle class="cls-1" cx="161.5" cy="40.5" r="6"/><circle class="cls-1" cx="161.5" cy="40.5" r="6"/><circle class="cls-2" cx="161.5" cy="40.5" r="1.74"/><line class="cls-2" x1="163" y1="39" x2="164" y2="38"/><circle class="cls-1" cx="144.5" cy="61.5" r="6"/><circle class="cls-1" cx="144.5" cy="61.5" r="6"/><circle class="cls-2" cx="144.5" cy="61.5" r="1.74"/><line class="cls-2" x1="146" y1="60" x2="147" y2="59"/><rect class="cls-1" x="151.07" y="122.5" width="2.86" height="123"/><rect class="cls-3" x="133.5" y="78.5" width="5" height="17"/><rect class="cls-3" x="141.5" y="78.5" width="5" height="17"/><rect class="cls-3" x="149.5" y="78.5" width="5" height="17"/><rect class="cls-3" x="157.5" y="78.5" width="5" height="17"/><rect class="cls-3" x="165.5" y="78.5" width="5" height="17"/><rect class="cls-4" x="145.5" y="193.5" width="14" height="42" rx="7"/><line class="cls-1" x1="147.5" y1="202.5" x2="157.5" y2="202.5"/><line class="cls-1" x1="147.5" y1="208.5" x2="157.5" y2="208.5"/><line class="cls-1" x1="147.5" y1="214.5" x2="157.5" y2="214.5"/><line class="cls-1" x1="147.5" y1="220.5" x2="157.5" y2="220.5"/><line class="cls-1" x1="147.5" y1="226.5" x2="157.5" y2="226.5"/><rect class="cls-1" x="102.5" y="205.5" width="14" height="42" rx="7"/><line class="cls-1" x1="104.5" y1="214.5" x2="114.5" y2="214.5"/><line class="cls-1" x1="104.5" y1="220.5" x2="114.5" y2="220.5"/><line class="cls-1" x1="104.5" y1="226.5" x2="114.5" y2="226.5"/><rect class="cls-1" x="174.5" y="0.5" width="43" height="249" rx="9.54"/><circle class="cls-1" cx="188.5" cy="21.5" r="6"/><circle class="cls-1" cx="188.5" cy="21.5" r="6"/><circle class="cls-2" cx="188.5" cy="21.5" r="1.74"/><circle class="cls-1" cx="205.5" cy="40.5" r="6"/><circle class="cls-1" cx="205.5" cy="40.5" r="6"/><circle class="cls-2" cx="205.5" cy="40.5" r="1.74"/><line class="cls-2" x1="207" y1="39" x2="208" y2="38"/><circle class="cls-1" cx="188.5" cy="61.5" r="6"/><circle class="cls-1" cx="188.5" cy="61.5" r="6"/><circle class="cls-2" cx="188.5" cy="61.5" r="1.74"/><line class="cls-2" x1="190" y1="60" x2="191" y2="59"/><rect class="cls-1" x="195.07" y="122.5" width="2.86" height="83"/><rect class="cls-3" x="177.5" y="78.5" width="5" height="17"/><rect class="cls-3" x="185.5" y="78.5" width="5" height="17"/><rect class="cls-3" x="193.5" y="78.5" width="5" height="17"/><rect class="cls-3" x="201.5" y="78.5" width="5" height="17"/><rect class="cls-3" x="209.5" y="78.5" width="5" height="17"/><rect class="cls-1" x="217.5" y="0.5" width="43" height="249" rx="9.54"/><circle class="cls-1" cx="231.5" cy="21.5" r="6"/><circle class="cls-1" cx="231.5" cy="21.5" r="6"/><circle class="cls-2" cx="231.5" cy="21.5" r="1.74"/><circle class="cls-1" cx="248.5" cy="40.5" r="6"/><circle class="cls-1" cx="248.5" cy="40.5" r="6"/><circle class="cls-2" cx="248.5" cy="40.5" r="1.74"/><line class="cls-2" x1="250" y1="39" x2="251" y2="38"/><circle class="cls-1" cx="231.5" cy="61.5" r="6"/><circle class="cls-1" cx="231.5" cy="61.5" r="6"/><circle class="cls-2" cx="231.5" cy="61.5" r="1.74"/><line class="cls-2" x1="233" y1="60" x2="234" y2="59"/><rect class="cls-1" x="238.07" y="122.5" width="2.86" height="123"/><rect class="cls-3" x="220.5" y="78.5" width="5" height="17"/><rect class="cls-3" x="228.5" y="78.5" width="5" height="17"/><rect class="cls-3" x="236.5" y="78.5" width="5" height="17"/><rect class="cls-3" x="244.5" y="78.5" width="5" height="17"/><rect class="cls-3" x="252.5" y="78.5" width="5" height="17"/><rect class="cls-4" x="232.5" y="193.5" width="14" height="42" rx="7"/><line class="cls-1" x1="234.5" y1="202.5" x2="244.5" y2="202.5"/><line class="cls-1" x1="234.5" y1="208.5" x2="244.5" y2="208.5"/><line class="cls-1" x1="234.5" y1="214.5" x2="244.5" y2="214.5"/><line class="cls-1" x1="234.5" y1="220.5" x2="244.5" y2="220.5"/><line class="cls-1" x1="234.5" y1="226.5" x2="244.5" y2="226.5"/><rect class="cls-1" x="189.5" y="205.5" width="14" height="42" rx="7"/><line class="cls-1" x1="191.5" y1="214.5" x2="201.5" y2="214.5"/><line class="cls-1" x1="191.5" y1="220.5" x2="201.5" y2="220.5"/><line class="cls-1" x1="191.5" y1="226.5" x2="201.5" y2="226.5"/><rect class="cls-1" x="261.5" y="0.5" width="43" height="249" rx="9.54"/><circle class="cls-1" cx="275.5" cy="21.5" r="6"/><circle class="cls-1" cx="275.5" cy="21.5" r="6"/><circle class="cls-2" cx="275.5" cy="21.5" r="1.74"/><circle class="cls-1" cx="292.5" cy="40.5" r="6"/><circle class="cls-1" cx="292.5" cy="40.5" r="6"/><circle class="cls-2" cx="292.5" cy="40.5" r="1.74"/><line class="cls-2" x1="294" y1="39" x2="295" y2="38"/><circle class="cls-1" cx="275.5" cy="61.5" r="6"/><circle class="cls-1" cx="275.5" cy="61.5" r="6"/><circle class="cls-2" cx="275.5" cy="61.5" r="1.74"/><line class="cls-2" x1="277" y1="60" x2="278" y2="59"/><rect class="cls-1" x="282.07" y="122.5" width="2.86" height="83"/><rect class="cls-3" x="264.5" y="78.5" width="5" height="17"/><rect class="cls-3" x="272.5" y="78.5" width="5" height="17"/><rect class="cls-3" x="280.5" y="78.5" width="5" height="17"/><rect class="cls-3" x="288.5" y="78.5" width="5" height="17"/><rect class="cls-3" x="296.5" y="78.5" width="5" height="17"/><rect class="cls-1" x="304.5" y="0.5" width="43" height="249" rx="9.54"/><circle class="cls-1" cx="318.5" cy="21.5" r="6"/><circle class="cls-1" cx="318.5" cy="21.5" r="6"/><circle class="cls-2" cx="318.5" cy="21.5" r="1.74"/><circle class="cls-1" cx="335.5" cy="40.5" r="6"/><circle class="cls-1" cx="335.5" cy="40.5" r="6"/><circle class="cls-2" cx="335.5" cy="40.5" r="1.74"/><line class="cls-2" x1="337" y1="39" x2="338" y2="38"/><circle class="cls-1" cx="318.5" cy="61.5" r="6"/><circle class="cls-1" cx="318.5" cy="61.5" r="6"/><circle class="cls-2" cx="318.5" cy="61.5" r="1.74"/><line class="cls-2" x1="320" y1="60" x2="321" y2="59"/><rect class="cls-1" x="325.07" y="122.5" width="2.86" height="123"/><rect class="cls-3" x="307.5" y="78.5" width="5" height="17"/><rect class="cls-3" x="315.5" y="78.5" width="5" height="17"/><rect class="cls-3" x="323.5" y="78.5" width="5" height="17"/><rect class="cls-3" x="331.5" y="78.5" width="5" height="17"/><rect class="cls-3" x="339.5" y="78.5" width="5" height="17"/><rect class="cls-4" x="319.5" y="193.5" width="14" height="42" rx="7"/><line class="cls-1" x1="321.5" y1="202.5" x2="331.5" y2="202.5"/><line class="cls-1" x1="321.5" y1="208.5" x2="331.5" y2="208.5"/><line class="cls-1" x1="321.5" y1="214.5" x2="331.5" y2="214.5"/><line class="cls-1" x1="321.5" y1="220.5" x2="331.5" y2="220.5"/><line class="cls-1" x1="321.5" y1="226.5" x2="331.5" y2="226.5"/><rect class="cls-1" x="276.5" y="205.5" width="14" height="42" rx="7"/><line class="cls-1" x1="278.5" y1="214.5" x2="288.5" y2="214.5"/><line class="cls-1" x1="278.5" y1="220.5" x2="288.5" y2="220.5"/><line class="cls-1" x1="278.5" y1="226.5" x2="288.5" y2="226.5"/><rect class="cls-1" x="348.5" y="0.5" width="43" height="249" rx="9.54"/><circle class="cls-1" cx="362.5" cy="21.5" r="6"/><circle class="cls-1" cx="362.5" cy="21.5" r="6"/><circle class="cls-2" cx="362.5" cy="21.5" r="1.74"/><circle class="cls-1" cx="379.5" cy="40.5" r="6"/><circle class="cls-1" cx="379.5" cy="40.5" r="6"/><circle class="cls-2" cx="379.5" cy="40.5" r="1.74"/><line class="cls-2" x1="381" y1="39" x2="382" y2="38"/><circle class="cls-1" cx="362.5" cy="61.5" r="6"/><circle class="cls-1" cx="362.5" cy="61.5" r="6"/><circle class="cls-2" cx="362.5" cy="61.5" r="1.74"/><line class="cls-2" x1="364" y1="60" x2="365" y2="59"/><rect class="cls-1" x="369.07" y="122.5" width="2.86" height="83"/><rect class="cls-3" x="351.5" y="78.5" width="5" height="17"/><rect class="cls-3" x="359.5" y="78.5" width="5" height="17"/><rect class="cls-3" x="367.5" y="78.5" width="5" height="17"/><rect class="cls-3" x="375.5" y="78.5" width="5" height="17"/><rect class="cls-3" x="383.5" y="78.5" width="5" height="17"/><rect class="cls-1" x="391.5" y="0.5" width="43" height="249" rx="9.54"/><circle class="cls-1" cx="405.5" cy="21.5" r="6"/><circle class="cls-1" cx="405.5" cy="21.5" r="6"/><circle class="cls-2" cx="405.5" cy="21.5" r="1.74"/><circle class="cls-1" cx="422.5" cy="40.5" r="6"/><circle class="cls-1" cx="422.5" cy="40.5" r="6"/><circle class="cls-2" cx="422.5" cy="40.5" r="1.74"/><line class="cls-2" x1="424" y1="39" x2="425" y2="38"/><circle class="cls-1" cx="405.5" cy="61.5" r="6"/><circle class="cls-1" cx="405.5" cy="61.5" r="6"/><circle class="cls-2" cx="405.5" cy="61.5" r="1.74"/><line class="cls-2" x1="407" y1="60" x2="408" y2="59"/><rect class="cls-1" x="412.07" y="122.5" width="2.86" height="123"/><rect class="cls-3" x="394.5" y="78.5" width="5" height="17"/><rect class="cls-3" x="402.5" y="78.5" width="5" height="17"/><rect class="cls-3" x="410.5" y="78.5" width="5" height="17"/><rect class="cls-3" x="418.5" y="78.5" width="5" height="17"/><rect class="cls-3" x="426.5" y="78.5" width="5" height="17"/><rect class="cls-4" x="406.5" y="193.5" width="14" height="42" rx="7"/><line class="cls-1" x1="408.5" y1="202.5" x2="418.5" y2="202.5"/><line class="cls-1" x1="408.5" y1="208.5" x2="418.5" y2="208.5"/><line class="cls-1" x1="408.5" y1="214.5" x2="418.5" y2="214.5"/><line class="cls-1" x1="408.5" y1="220.5" x2="418.5" y2="220.5"/><line class="cls-1" x1="408.5" y1="226.5" x2="418.5" y2="226.5"/><rect class="cls-1" x="363.5" y="205.5" width="14" height="42" rx="7"/><line class="cls-1" x1="365.5" y1="214.5" x2="375.5" y2="214.5"/><line class="cls-1" x1="365.5" y1="220.5" x2="375.5" y2="220.5"/><line class="cls-1" x1="365.5" y1="226.5" x2="375.5" y2="226.5"/><rect class="cls-1" x="435.5" y="0.5" width="43" height="249" rx="9.54"/><circle class="cls-1" cx="449.5" cy="21.5" r="6"/><circle class="cls-1" cx="449.5" cy="21.5" r="6"/><circle class="cls-2" cx="449.5" cy="21.5" r="1.74"/><circle class="cls-1" cx="466.5" cy="40.5" r="6"/><circle class="cls-1" cx="466.5" cy="40.5" r="6"/><circle class="cls-2" cx="466.5" cy="40.5" r="1.74"/><line class="cls-2" x1="468" y1="39" x2="469" y2="38"/><circle class="cls-1" cx="449.5" cy="61.5" r="6"/><circle class="cls-1" cx="449.5" cy="61.5" r="6"/><circle class="cls-2" cx="449.5" cy="61.5" r="1.74"/><line class="cls-2" x1="451" y1="60" x2="452" y2="59"/><rect class="cls-1" x="456.07" y="122.5" width="2.86" height="83"/><rect class="cls-3" x="438.5" y="78.5" width="5" height="17"/><rect class="cls-3" x="446.5" y="78.5" width="5" height="17"/><rect class="cls-3" x="454.5" y="78.5" width="5" height="17"/><rect class="cls-3" x="462.5" y="78.5" width="5" height="17"/><rect class="cls-3" x="470.5" y="78.5" width="5" height="17"/><rect class="cls-1" x="478.5" y="0.5" width="43" height="249" rx="9.54"/><circle class="cls-1" cx="492.5" cy="21.5" r="6"/><circle class="cls-1" cx="492.5" cy="21.5" r="6"/><circle class="cls-2" cx="492.5" cy="21.5" r="1.74"/><circle class="cls-1" cx="509.5" cy="40.5" r="6"/><circle class="cls-1" cx="509.5" cy="40.5" r="6"/><circle class="cls-2" cx="509.5" cy="40.5" r="1.74"/><line class="cls-2" x1="511" y1="39" x2="512" y2="38"/><circle class="cls-1" cx="492.5" cy="61.5" r="6"/><circle class="cls-1" cx="492.5" cy="61.5" r="6"/><circle class="cls-2" cx="492.5" cy="61.5" r="1.74"/><line class="cls-2" x1="494" y1="60" x2="495" y2="59"/><rect class="cls-1" x="499.07" y="122.5" width="2.86" height="123"/><rect class="cls-3" x="481.5" y="78.5" width="5" height="17"/><rect class="cls-3" x="489.5" y="78.5" width="5" height="17"/><rect class="cls-3" x="497.5" y="78.5" width="5" height="17"/><rect class="cls-3" x="505.5" y="78.5" width="5" height="17"/><rect class="cls-3" x="513.5" y="78.5" width="5" height="17"/><rect class="cls-4" x="493.5" y="193.5" width="14" height="42" rx="7"/><line class="cls-1" x1="495.5" y1="202.5" x2="505.5" y2="202.5"/><line class="cls-1" x1="495.5" y1="208.5" x2="505.5" y2="208.5"/><line class="cls-1" x1="495.5" y1="214.5" x2="505.5" y2="214.5"/><line class="cls-1" x1="495.5" y1="220.5" x2="505.5" y2="220.5"/><line class="cls-1" x1="495.5" y1="226.5" x2="505.5" y2="226.5"/><rect class="cls-1" x="450.5" y="205.5" width="14" height="42" rx="7"/><line class="cls-1" x1="452.5" y1="214.5" x2="462.5" y2="214.5"/><line class="cls-1" x1="452.5" y1="220.5" x2="462.5" y2="220.5"/><line class="cls-1" x1="452.5" y1="226.5" x2="462.5" y2="226.5"/></g></g></svg>